<svg fill="none" xmlns="http://www.w3.org/2000/svg" viewBox="0 0 24 24" focusable="false">
    <g clip-path="url(#a)">
        <path fill-rule="evenodd" clip-rule="evenodd" d="M24 12c0 6.627-5.373 12-12 12S0 18.627 0 12 5.373 0 12 0s12 5.373 12 12Zm-11.543 1.334-.299.005c-.89.01-1.761.089-2.62.331-.741.21-1.364.56-1.831 1.185-.038.054-.077.11-.114.167l-.055.086c-.236.38-.427.788-.427.788-.188.454-.534.991-.964 1.307a.14.14 0 0 0 .083.254h1.833c.124 0 .19-.153.101-.24-.22-.207-.297-.453-.357-.806-.087-.52.197-1.069.524-1.453.382-.45.884-.686 1.446-.835l.034-.009.067-.016c.753-.186 1.514-.247 2.287-.256.105 0 .207-.002.306-.004a.252.252 0 1 0-.012-.504h-.002Zm1.37 4.123h4.233c.13 0 .188-.163.089-.249-.465-.4-.841-1.256-1.36-2.599l-2.75-7.017c-.3-.802-.438-1.317-.464-1.73a.139.139 0 0 0-.138-.13H10.28c-.12 0-.186.139-.109.227a.33.33 0 0 0 .082.068c.317.196.9 1.674 1.383 2.934a77.743 77.743 0 0 1 1.512 4.375h.001l.202.518.335.905c.251.67.368 1.19.368 1.574 0 .373-.113.683-.328.884-.09.087-.027.24.1.24Z" fill="currentColor"/>
    </g>
    <defs>
        <clipPath id="a">
            <path fill="currentColor" d="M0 0h24v24H0z"/>
        </clipPath>
    </defs>
</svg>
